# xmcd
#
# Track frame offsets:
#	150
#	16352
#	34012
#	54627
#	69377
#	88597
#	105910
#	123148
#	136533
#	153937
#	171156
#	190732
#	205345
#	221987
#	239745
#	257726
#	277663
#	293594
#	309381
#	324866
#
# Disc length: 4519 seconds
#
# Revision: 1
# Processed by: cddbd v1.5.2PL0 Copyright (c) Steve Scherf et al.
# Submitted via: audiograbber 1.82.02
#
DISCID=0d11a514
DTITLE=Various Artist - Country Hits 2009 V.2 - The Best Of New Country
DYEAR=2009
DGENRE=Country
TTITLE0=Toby Keith - Lost You Antway
TTITLE1=Rascal Flatts - Here
TTITLE2=Sugarland - Already Gone
TTITLE3=Aaron Pritchett - Hell Bent For Buffalo
TTITLE4=Tara Oram - Fly Girl
TTITLE5=Doc Walker - That's All
TTITLE6=George Canyon - All or Nothing
TTITLE7=Johnny Reid - Out of the Blue
TTITLE8=Bryce Pallister - Ready To Go
TTITLE9=Jaydee Bixby - Boys in the Band
TTITLE10=Beverly Mahood - Rewrite History
TTITLE11=The Higgins - Real Thing
TTITLE12=Jack Ingram - That's A Man
TTITLE13=The Rankin Family - Never Alone
TTITLE14=Jo Hikk - My Kind of Radio
TTITLE15=Reba McEntire and Vince Gill - These Broken Hearts
TTITLE16=The Wilkinsons - You Heal Me
TTITLE17=Shane Yellowbird - life Is Calling My Name
TTITLE18=Jason Blaine - Give It To Me
TTITLE19=Alex J. Robinson - Don't Waste My Time
EXTD=
EXTT0=
EXTT1=
EXTT2=
EXTT3=
EXTT4=
EXTT5=
EXTT6=
EXTT7=
EXTT8=
EXTT9=
EXTT10=
EXTT11=
EXTT12=
EXTT13=
EXTT14=
EXTT15=
EXTT16=
EXTT17=
EXTT18=
EXTT19=
PLAYORDER=
